# xmcd
#
# Track frame offsets:
#	150
#	22277
#	43455
#	57732
#	73297
#	92142
#	108990
#	123627
#	134890
#	148087
#	159980
#	181365
#	202315
#	217417
#	231397
#	250800
#	270767
#	276780
#	293257
#	297712
#	307032
#
# Disc length: 4197 seconds
#
# Revision: 1
# Processed by: cddbd v1.5PL3 Copyright (c) Steve Scherf et al.
# Submitted via: audiograbber 1.83.01
#
DISCID=6f106315
DTITLE=Various Artist - Expressin' The Blues
DYEAR=1999
DGENRE=Blues
TTITLE0=Guitar Gabriel - Expressin' the Blues
TTITLE1=Big Boy Henry - Old Hill
TTITLE2=Etta Baker - Carolina Breakdown
TTITLE3=Neal Pattman - Prison Blues
TTITLE4=Essie Mae Brooks - Rain In Your Life
TTITLE5=Capt. Luke - Rainy Night In Georgia
TTITLE6=John Dee Holeman - Little Country Girl
TTITLE7=Marie Manning - Hard Luck and Trouble
TTITLE8=Macavine Hayes - Let's Talk It Over
TTITLE9=Samuel Turner Stevens - Railroadin' and Gamblin'
TTITLE10=Preston Fulp - Careless Love
TTITLE11=Cootie Stark - Metal Bottoms
TTITLE12=Precious Bryant - Wrenched My Ankle
TTITLE13=AlgieMae Hinton - Tomorrow Might Be My Wedding Day
TTITLE14=Carl Rutherford - Turn Off The Fear
TTITLE15=John Lee Zeigler - Going Away
TTITLE16=Willa Mae Buckner - Peter Rumpkin
TTITLE17=Robert "Wolfman" Belfour - Black Mattie
TTITLE18=Rufus McKenzie - Whoopin' The Blues
TTITLE19=Bishop Dready Manning - Gospel Train
TTITLE20=Albert Smith - Walk On Walker
EXTD=
EXTT0=
EXTT1=
EXTT2=
EXTT3=
EXTT4=
EXTT5=
EXTT6=
EXTT7=
EXTT8=
EXTT9=
EXTT10=
EXTT11=
EXTT12=
EXTT13=
EXTT14=
EXTT15=
EXTT16=
EXTT17=
EXTT18=
EXTT19=
EXTT20=
PLAYORDER=
